<?xml version="1.0" encoding="UTF-8" standalone="no"?>
<svg
   xmlns:dc="http://purl.org/dc/elements/1.1/"
   xmlns:cc="http://creativecommons.org/ns#"
   xmlns:rdf="http://www.w3.org/1999/02/22-rdf-syntax-ns#"
   xmlns:svg="http://www.w3.org/2000/svg"
   xmlns="http://www.w3.org/2000/svg"
   xmlns:sodipodi="http://sodipodi.sourceforge.net/DTD/sodipodi-0.dtd"
   xmlns:inkscape="http://www.inkscape.org/namespaces/inkscape"
   version="1.1"
   viewBox="0 0 581.669 507.14939"
   stroke-miterlimit="10"
   id="svg161"
   sodipodi:docname="logo.svg"
   width="581.66901"
   height="507.14938"
   style="fill:none;stroke:none;stroke-linecap:square;stroke-miterlimit:10"
   inkscape:version="0.92.5 (0.92.5+68)">
  <metadata
     id="metadata167">
    <rdf:RDF>
      <cc:Work
         rdf:about="">
        <dc:format>image/svg+xml</dc:format>
        <dc:type
           rdf:resource="http://purl.org/dc/dcmitype/StillImage" />
      </cc:Work>
    </rdf:RDF>
  </metadata>
  <defs
     id="defs165">
    <defs
       id="defs28">
      <filter
         filterUnits="userSpaceOnUse"
         id="shadowFilter-g80358aeb98_0_33.1">
        <feGaussianBlur
           id="feGaussianBlur15"
           result="blur"
           stdDeviation="2.0"
           in="SourceAlpha" />
        <feComponentTransfer
           style="color-interpolation-filters:sRGB"
           id="feComponentTransfer25"
           in="blur">
          <feFuncR
             id="feFuncR17"
             intercept="0.0"
             slope="0"
             type="linear" />
          <feFuncG
             id="feFuncG19"
             intercept="0.0"
             slope="0"
             type="linear" />
          <feFuncB
             id="feFuncB21"
             intercept="0.0"
             slope="0"
             type="linear" />
          <feFuncA
             id="feFuncA23"
             intercept="0"
             slope="0.5"
             type="linear" />
        </feComponentTransfer>
      </filter>
    </defs>
    <defs
       id="defs52">
      <filter
         filterUnits="userSpaceOnUse"
         id="shadowFilter-g80358aeb98_0_33.2">
        <feGaussianBlur
           id="feGaussianBlur39"
           result="blur"
           stdDeviation="2.0"
           in="SourceAlpha" />
        <feComponentTransfer
           style="color-interpolation-filters:sRGB"
           id="feComponentTransfer49"
           in="blur">
          <feFuncR
             id="feFuncR41"
             intercept="0.0"
             slope="0"
             type="linear" />
          <feFuncG
             id="feFuncG43"
             intercept="0.0"
             slope="0"
             type="linear" />
          <feFuncB
             id="feFuncB45"
             intercept="0.0"
             slope="0"
             type="linear" />
          <feFuncA
             id="feFuncA47"
             intercept="0"
             slope="0.5"
             type="linear" />
        </feComponentTransfer>
      </filter>
    </defs>
    <defs
       id="defs76">
      <filter
         filterUnits="userSpaceOnUse"
         id="shadowFilter-g80358aeb98_0_33.3">
        <feGaussianBlur
           id="feGaussianBlur63"
           result="blur"
           stdDeviation="2.0"
           in="SourceAlpha" />
        <feComponentTransfer
           style="color-interpolation-filters:sRGB"
           id="feComponentTransfer73"
           in="blur">
          <feFuncR
             id="feFuncR65"
             intercept="0.0"
             slope="0"
             type="linear" />
          <feFuncG
             id="feFuncG67"
             intercept="0.0"
             slope="0"
             type="linear" />
          <feFuncB
             id="feFuncB69"
             intercept="0.0"
             slope="0"
             type="linear" />
          <feFuncA
             id="feFuncA71"
             intercept="0"
             slope="0.5"
             type="linear" />
        </feComponentTransfer>
      </filter>
    </defs>
    <defs
       id="defs100">
      <filter
         filterUnits="userSpaceOnUse"
         id="shadowFilter-g80358aeb98_0_33.4">
        <feGaussianBlur
           id="feGaussianBlur87"
           result="blur"
           stdDeviation="2.0"
           in="SourceAlpha" />
        <feComponentTransfer
           style="color-interpolation-filters:sRGB"
           id="feComponentTransfer97"
           in="blur">
          <feFuncR
             id="feFuncR89"
             intercept="0.0"
             slope="0"
             type="linear" />
          <feFuncG
             id="feFuncG91"
             intercept="0.0"
             slope="0"
             type="linear" />
          <feFuncB
             id="feFuncB93"
             intercept="0.0"
             slope="0"
             type="linear" />
          <feFuncA
             id="feFuncA95"
             intercept="0"
             slope="0.5"
             type="linear" />
        </feComponentTransfer>
      </filter>
    </defs>
    <defs
       id="defs128">
      <filter
         filterUnits="userSpaceOnUse"
         id="shadowFilter-g80358aeb98_0_33.5">
        <feGaussianBlur
           id="feGaussianBlur115"
           result="blur"
           stdDeviation="2.0"
           in="SourceAlpha" />
        <feComponentTransfer
           style="color-interpolation-filters:sRGB"
           id="feComponentTransfer125"
           in="blur">
          <feFuncR
             id="feFuncR117"
             intercept="0.0"
             slope="0"
             type="linear" />
          <feFuncG
             id="feFuncG119"
             intercept="0.0"
             slope="0"
             type="linear" />
          <feFuncB
             id="feFuncB121"
             intercept="0.0"
             slope="0"
             type="linear" />
          <feFuncA
             id="feFuncA123"
             intercept="0"
             slope="0.5"
             type="linear" />
        </feComponentTransfer>
      </filter>
    </defs>
    <filter
       inkscape:collect="always"
       style="color-interpolation-filters:sRGB"
       id="filter4954"
       x="-0.027451318"
       width="1.0549026"
       y="-0.054902635"
       height="1.1098053">
      <feGaussianBlur
         inkscape:collect="always"
         stdDeviation="1.3985039"
         id="feGaussianBlur4956" />
    </filter>
    <filter
       inkscape:collect="always"
       style="color-interpolation-filters:sRGB"
       id="filter4958"
       x="-0.051605812"
       width="1.1032116"
       y="-0.054902635"
       height="1.1098053">
      <feGaussianBlur
         inkscape:collect="always"
         stdDeviation="1.3985039"
         id="feGaussianBlur4960" />
    </filter>
    <filter
       inkscape:collect="always"
       style="color-interpolation-filters:sRGB"
       id="filter4962"
       x="-0.027451318"
       width="1.0549026"
       y="-0.054902635"
       height="1.1098053">
      <feGaussianBlur
         inkscape:collect="always"
         stdDeviation="1.3985039"
         id="feGaussianBlur4964" />
    </filter>
    <filter
       inkscape:collect="always"
       style="color-interpolation-filters:sRGB"
       id="filter4966"
       x="-0.027451318"
       width="1.0549026"
       y="-0.054902626"
       height="1.1098053">
      <feGaussianBlur
         inkscape:collect="always"
         stdDeviation="1.3985039"
         id="feGaussianBlur4968" />
    </filter>
    <filter
       inkscape:collect="always"
       style="color-interpolation-filters:sRGB"
       id="filter4970"
       x="-0.027451318"
       width="1.0549026"
       y="-0.054902626"
       height="1.1098053">
      <feGaussianBlur
         inkscape:collect="always"
         stdDeviation="1.3985039"
         id="feGaussianBlur4972" />
    </filter>
  </defs>
  <sodipodi:namedview
     pagecolor="#ffffff"
     bordercolor="#666666"
     borderopacity="1"
     objecttolerance="10"
     gridtolerance="10"
     guidetolerance="10"
     inkscape:pageopacity="0"
     inkscape:pageshadow="2"
     inkscape:window-width="2493"
     inkscape:window-height="1378"
     id="namedview163"
     showgrid="false"
     inkscape:zoom="1.2361274"
     inkscape:cx="227.92458"
     inkscape:cy="115.69371"
     inkscape:window-x="67"
     inkscape:window-y="34"
     inkscape:window-maximized="1"
     inkscape:current-layer="svg161" />
  <clipPath
     id="g80358aeb98_0_33.0">
    <path
       d="M 0,0 H 960 V 540 H 0 Z"
       id="path2"
       inkscape:connector-curvature="0"
       style="clip-rule:nonzero" />
  </clipPath>
  <path
     style="fill:#444547;fill-rule:evenodd"
     inkscape:connector-curvature="0"
     id="path7"
     d="M 11.999858,253.5747 132.78726,12 H 448.88174 L 569.66915,253.5747 448.88174,495.14938 H 132.78726 Z" />
  <path
     style="fill-rule:evenodd;stroke:#78909c;stroke-width:24;stroke-linecap:butt;stroke-linejoin:round"
     inkscape:connector-curvature="0"
     id="path9"
     d="M 11.999858,253.5747 132.78726,12 H 448.88174 L 569.66915,253.5747 448.88174,495.14938 H 132.78726 Z" />
  <path
     style="fill:#000000;fill-opacity:0;fill-rule:evenodd"
     inkscape:connector-curvature="0"
     id="path107"
     d="M 95.778558,335.40801 H 485.88876 v 92.28348 H 95.778558 Z" />
  <path
     style="fill:#eeeeee;fill-rule:nonzero;stroke-width:1.00000012"
     inkscape:connector-curvature="0"
     id="path109"
     d="m 131.96818,395.91497 q -5.01371,0 -8.71087,-1.00995 -3.67912,-0.99193 -5.71708,-2.9938 -2.03794,-2.00189 -2.03794,-5.06783 0,-2.07401 0.88371,-3.73322 0.88371,-1.65922 2.45275,-2.92166 1.58707,-1.28049 3.58896,-2.20026 -2.9397,-0.84765 -4.56285,-2.52489 -1.6051,-1.69529 -1.6051,-4.54481 0,-2.70524 1.29851,-4.65301 1.31655,-1.96582 3.62502,-3.96769 -2.14615,-1.92974 -3.26432,-4.72515 -1.11816,-2.81345 -1.11816,-6.81721 0,-4.99568 1.83956,-8.45839 1.85759,-3.4627 5.42851,-5.23013 3.58896,-1.76742 8.65677,-1.76742 3.46271,0 6.07778,0.84765 2.61506,0.8296 4.47266,2.61506 0.84764,-1.31655 2.21829,-2.54292 1.3887,-1.22638 3.15612,-2.07403 l 1.62315,-0.77549 2.92166,6.00562 q -0.68533,0.21642 -1.92975,0.75747 -1.22637,0.54105 -2.57899,1.15424 -1.33458,0.61318 -2.41668,1.24441 0.84764,1.67725 1.29852,3.84144 0.4689,2.14616 0.4689,4.45463 0,4.77926 -1.73135,8.24196 -1.73135,3.46271 -5.12192,5.2662 -3.37254,1.8035 -8.45839,1.8035 -2.14615,0 -4.0759,-0.34266 -1.92973,-0.34267 -3.53484,-0.88372 -0.46891,0.61319 -0.81157,1.28049 -0.34267,0.64926 -0.34267,1.40672 0,0.93782 0.91979,1.47887 0.91977,0.52301 3.31843,0.82961 l 11.68663,1.31654 q 5.69904,0.61319 8.38624,3.6611 2.68721,3.02987 2.68721,7.9534 0,4.23821 -1.89367,7.15987 -1.87563,2.92166 -6.07777,4.41856 -4.1841,1.4969 -11.01935,1.4969 z m 1.60512,-9.07158 q 4.2382,0 6.49257,-0.70335 2.27241,-0.68533 2.27241,-2.83149 0,-1.0821 -0.61319,-1.74939 -0.61319,-0.64925 -2.03796,-1.06406 -1.42475,-0.43284 -4.03982,-0.64926 l -8.22393,-0.84764 q -0.7755,0.54105 -1.35262,1.19031 -0.57712,0.64926 -0.91978,1.37065 -0.34266,0.73943 -0.34266,1.58708 0,1.83956 2.00187,2.75934 2.00188,0.93781 6.76311,0.93781 z m -0.84765,-28.17057 q 1.08209,0 1.76742,-0.41479 0.70337,-0.41481 1.04603,-1.33459 0.34267,-0.93781 0.48695,-2.47079 0.16231,-1.53296 0.16231,-3.69716 0,-2.23633 -0.16231,-3.73323 -0.14428,-1.4969 -0.48695,-2.45276 -0.34266,-0.97388 -1.04603,-1.38868 -0.68533,-0.43284 -1.76742,-0.43284 -1.06406,0 -1.76743,0.43284 -0.68532,0.4148 -1.04602,1.35261 -0.34266,0.91979 -0.50498,2.45276 -0.14428,1.53297 -0.14428,3.7693 0,2.1642 0.14428,3.66109 0.16232,1.49691 0.50498,2.47079 0.3607,0.95585 1.04602,1.37066 0.70337,0.41479 1.76743,0.41479 z m 37.71109,37.24215 q -5.01371,0 -8.71088,-1.00995 -3.67913,-0.99193 -5.71707,-2.9938 -2.03795,-2.00189 -2.03795,-5.06783 0,-2.07401 0.88372,-3.73322 0.8837,-1.65922 2.45275,-2.92166 1.58707,-1.28049 3.58894,-2.20026 -2.93969,-0.84765 -4.56283,-2.52489 -1.60512,-1.69529 -1.60512,-4.54481 0,-2.70524 1.29852,-4.65301 1.31656,-1.96582 3.62503,-3.96769 -2.14616,-1.92974 -3.26433,-4.72515 -1.11817,-2.81345 -1.11817,-6.81721 0,-4.99568 1.83957,-8.45839 1.8576,-3.4627 5.42852,-5.23013 3.58894,-1.76742 8.65677,-1.76742 3.4627,0 6.07776,0.84765 2.61508,0.8296 4.47267,2.61506 0.84765,-1.31655 2.2183,-2.54292 1.38869,-1.22638 3.15611,-2.07403 l 1.62314,-0.77549 2.92166,6.00562 q -0.68532,0.21642 -1.92973,0.75747 -1.22637,0.54105 -2.579,1.15424 -1.33459,0.61318 -2.41668,1.24441 0.84765,1.67725 1.29851,3.84144 0.46891,2.14616 0.46891,4.45463 0,4.77926 -1.73135,8.24196 -1.73136,3.46271 -5.12192,5.2662 -3.37253,1.8035 -8.45838,1.8035 -2.14617,0 -4.0759,-0.34266 -1.92974,-0.34267 -3.53485,-0.88372 -0.4689,0.61319 -0.81157,1.28049 -0.34266,0.64926 -0.34266,1.40672 0,0.93782 0.91977,1.47887 0.91979,0.52301 3.31843,0.82961 l 11.68664,1.31654 q 5.69904,0.61319 8.38625,3.6611 2.6872,3.02987 2.6872,7.9534 0,4.23821 -1.89366,7.15987 -1.87563,2.92166 -6.07778,4.41856 -4.18411,1.4969 -11.01934,1.4969 z m 1.6051,-9.07158 q 4.23822,0 6.49258,-0.70335 2.2724,-0.68533 2.2724,-2.83149 0,-1.0821 -0.61319,-1.74939 -0.61318,-0.64925 -2.03794,-1.06406 -1.42476,-0.43284 -4.03982,-0.64926 l -8.22393,-0.84764 q -0.77551,0.54105 -1.35263,1.19031 -0.57712,0.64926 -0.91978,1.37065 -0.34267,0.73943 -0.34267,1.58708 0,1.83956 2.00189,2.75934 2.00187,0.93781 6.76309,0.93781 z m -0.84763,-28.17057 q 1.08209,0 1.76742,-0.41479 0.70336,-0.41481 1.04603,-1.33459 0.34266,-0.93781 0.48693,-2.47079 0.16232,-1.53296 0.16232,-3.69716 0,-2.23633 -0.16232,-3.73323 -0.14427,-1.4969 -0.48693,-2.45276 -0.34267,-0.97388 -1.04603,-1.38868 -0.68533,-0.43284 -1.76742,-0.43284 -1.06407,0 -1.76743,0.43284 -0.68532,0.4148 -1.04602,1.35261 -0.34267,0.91979 -0.50498,2.45276 -0.14428,1.53297 -0.14428,3.7693 0,2.1642 0.14428,3.66109 0.16231,1.49691 0.50498,2.47079 0.3607,0.95585 1.04602,1.37066 0.70336,0.41479 1.76743,0.41479 z m 37.71111,37.24215 q -5.01371,0 -8.71087,-1.00995 -3.67912,-0.99193 -5.71708,-2.9938 -2.03794,-2.00189 -2.03794,-5.06783 0,-2.07401 0.88371,-3.73322 0.88371,-1.65922 2.45275,-2.92166 1.58707,-1.28049 3.58896,-2.20026 -2.9397,-0.84765 -4.56285,-2.52489 -1.6051,-1.69529 -1.6051,-4.54481 0,-2.70524 1.29851,-4.65301 1.31655,-1.96582 3.62502,-3.96769 -2.14615,-1.92974 -3.26432,-4.72515 -1.11816,-2.81345 -1.11816,-6.81721 0,-4.99568 1.83956,-8.45839 1.85759,-3.4627 5.42851,-5.23013 3.58896,-1.76742 8.65677,-1.76742 3.46271,0 6.07778,0.84765 2.61506,0.8296 4.47266,2.61506 0.84764,-1.31655 2.21829,-2.54292 1.3887,-1.22638 3.15612,-2.07403 l 1.62315,-0.77549 2.92166,6.00562 q -0.68533,0.21642 -1.92975,0.75747 -1.22637,0.54105 -2.57899,1.15424 -1.33458,0.61318 -2.41668,1.24441 0.84764,1.67725 1.29852,3.84144 0.46891,2.14616 0.46891,4.45463 0,4.77926 -1.73136,8.24196 -1.73135,3.46271 -5.12192,5.2662 -3.37254,1.8035 -8.45839,1.8035 -2.14615,0 -4.0759,-0.34266 -1.92973,-0.34267 -3.53484,-0.88372 -0.46891,0.61319 -0.81157,1.28049 -0.34267,0.64926 -0.34267,1.40672 0,0.93782 0.91979,1.47887 0.91977,0.52301 3.31843,0.82961 l 11.68663,1.31654 q 5.69904,0.61319 8.38624,3.6611 2.68722,3.02987 2.68722,7.9534 0,4.23821 -1.89368,7.15987 -1.87563,2.92166 -6.07777,4.41856 -4.1841,1.4969 -11.01935,1.4969 z m 1.60512,-9.07158 q 4.2382,0 6.49257,-0.70335 2.27241,-0.68533 2.27241,-2.83149 0,-1.0821 -0.61319,-1.74939 -0.61319,-0.64925 -2.03796,-1.06406 -1.42475,-0.43284 -4.03982,-0.64926 l -8.22393,-0.84764 q -0.7755,0.54105 -1.35262,1.19031 -0.57711,0.64926 -0.91978,1.37065 -0.34266,0.73943 -0.34266,1.58708 0,1.83956 2.00187,2.75934 2.00188,0.93781 6.76311,0.93781 z m -0.84765,-28.17057 q 1.0821,0 1.76742,-0.41479 0.70337,-0.41481 1.04603,-1.33459 0.34267,-0.93781 0.48695,-2.47079 0.16231,-1.53296 0.16231,-3.69716 0,-2.23633 -0.16231,-3.73323 -0.14428,-1.4969 -0.48695,-2.45276 -0.34266,-0.97388 -1.04603,-1.38868 -0.68532,-0.43284 -1.76742,-0.43284 -1.06406,0 -1.76742,0.43284 -0.68533,0.4148 -1.04603,1.35261 -0.34266,0.91979 -0.50498,2.45276 -0.14428,1.53297 -0.14428,3.7693 0,2.1642 0.14428,3.66109 0.16232,1.49691 0.50498,2.47079 0.3607,0.95585 1.04603,1.37066 0.70336,0.41479 1.76742,0.41479 z m 37.78323,22.63386 q -4.8514,0 -8.31411,-1.73136 -3.46271,-1.73135 -5.3203,-5.06782 -1.83956,-3.3545 -1.83956,-8.06161 v -16.30358 q 0,-4.77927 1.83956,-8.07966 1.85759,-3.30039 5.35637,-5.03175 3.49878,-1.73135 8.27804,-1.73135 4.92353,0 8.18786,1.69528 3.26432,1.67726 4.92353,4.99568 1.65922,3.30039 1.65922,8.1518 v 8.92728 h -17.85459 v 8.53053 q 0,1.69529 0.37874,2.77738 0.39677,1.0821 1.0821,1.55101 0.70335,0.45087 1.62314,0.45087 0.91978,0 1.64117,-0.4148 0.73944,-0.43284 1.15424,-1.35263 0.43284,-0.93781 0.43284,-2.54292 v -4.68908 h 11.54236 v 4.31034 q 0,6.76311 -3.93162,10.18975 -3.91357,3.42664 -10.83899,3.42664 z m -3.08398,-28.08041 h 6.31223 v -4.47266 q 0,-1.76742 -0.43284,-2.75934 -0.4148,-1.00996 -1.15424,-1.3887 -0.72139,-0.39676 -1.71331,-0.39676 -0.93782,0 -1.58707,0.4689 -0.64926,0.46891 -1.04603,1.58708 -0.37874,1.10014 -0.37874,3.19219 z m 24.70829,27.3049 v -44.47415 h 12.53427 v 4.47266 q 2.45276,-2.47078 5.1039,-3.84144 2.66917,-1.38869 5.59083,-1.38869 2.75934,0 4.56283,1.35262 1.82153,1.33459 2.74131,3.67913 0.91979,2.34454 0.91979,5.33834 v 34.86153 h -12.46215 v -33.07608 q 0,-1.62314 -0.54105,-2.47078 -0.523,-0.84764 -2.00187,-0.84764 -0.75747,0 -1.80349,0.43283 -1.028,0.41481 -2.1101,1.19031 v 34.77136 z m 53.61543,0.77551 q -4.76122,0 -8.27804,-1.62315 -3.49877,-1.62314 -5.39244,-4.8514 -1.87563,-3.22825 -1.87563,-8.07965 v -16.91677 q 0,-4.8514 1.87563,-8.07966 1.89367,-3.22824 5.39244,-4.83336 3.51682,-1.62314 8.27804,-1.62314 4.77926,0 8.27803,1.62314 3.49878,1.60512 5.41049,4.83336 1.92974,3.22826 1.92974,8.07966 v 16.91677 q 0,4.8514 -1.92974,8.07965 -1.91171,3.22826 -5.41049,4.8514 -3.49877,1.62315 -8.27803,1.62315 z m 0.0721,-8.31412 q 1.24441,0 1.92974,-0.64925 0.68532,-0.66729 0.95585,-1.8576 0.27052,-1.1903 0.27052,-2.88559 v -18.61205 q 0,-1.69528 -0.27052,-2.88559 -0.27053,-1.19031 -0.95585,-1.83956 -0.68533,-0.6673 -1.92974,-0.6673 -1.22637,0 -1.92974,0.6673 -0.68533,0.64925 -0.99192,1.83956 -0.30659,1.19031 -0.30659,2.88559 v 18.61205 q 0,1.69529 0.30659,2.88559 0.30659,1.19031 0.99192,1.8576 0.70337,0.64925 1.92974,0.64925 z m 22.4802,7.53861 v -44.47415 h 12.29983 v 3.53484 q 2.47078,-2.38061 5.12192,-3.37252 2.65113,-1.00996 5.42851,-1.00996 2.68721,0 4.63499,1.35261 1.9658,1.35263 2.97575,3.96769 2.61508,-2.92166 5.50067,-4.11197 2.88558,-1.20833 5.80724,-1.20833 2.61506,0 4.52677,1.28047 1.92974,1.26245 3.01184,3.69717 1.08209,2.41668 1.08209,5.80725 v 34.5369 h -12.31786 v -33.23838 q 0,-1.83957 -0.64926,-2.65115 -0.64926,-0.81156 -1.9658,-0.81156 -0.75747,0 -1.91171,0.43284 -1.15423,0.41479 -2.23633,1.1903 0,0.14428 0,0.27052 0,0.10815 0,0.27053 v 34.5369 H 364.3912 v -33.23838 q 0,-1.83957 -0.70336,-2.65115 -0.68533,-0.81156 -2.00188,-0.81156 -0.8296,0 -1.94777,0.43284 -1.11816,0.41479 -2.20026,1.1903 v 35.07795 z m 72.46987,0.77551 q -4.8514,0 -8.31411,-1.73136 -3.46271,-1.73135 -5.3203,-5.06782 -1.83957,-3.3545 -1.83957,-8.06161 v -16.30358 q 0,-4.77927 1.83957,-8.07966 1.85759,-3.30039 5.35637,-5.03175 3.49878,-1.73135 8.27804,-1.73135 4.92353,0 8.18786,1.69528 3.26432,1.67726 4.92353,4.99568 1.65922,3.30039 1.65922,8.1518 v 8.92728 h -17.85459 v 8.53053 q 0,1.69529 0.37874,2.77738 0.39677,1.0821 1.0821,1.55101 0.70335,0.45087 1.62314,0.45087 0.91978,0 1.64117,-0.4148 0.73944,-0.43284 1.15424,-1.35263 0.43284,-0.93781 0.43284,-2.54292 v -4.68908 h 11.54236 v 4.31034 q 0,6.76311 -3.93162,10.18975 -3.91358,3.42664 -10.83899,3.42664 z m -3.08398,-28.08041 h 6.31223 v -4.47266 q 0,-1.76742 -0.43284,-2.75934 -0.4148,-1.00996 -1.15424,-1.3887 -0.72139,-0.39676 -1.71331,-0.39676 -0.93782,0 -1.58707,0.4689 -0.64926,0.46891 -1.04603,1.58708 -0.37874,1.10014 -0.37874,3.19219 z m 38.3968,28.08041 q -5.84332,0 -9.73887,-2.61508 -3.8775,-2.61506 -6.34829,-8.54856 l 8.54856,-3.76929 q 1.22637,2.9938 2.88559,4.72515 1.65921,1.73136 3.64305,1.73136 1.47887,0 2.20027,-0.61319 0.73943,-0.61319 0.73943,-1.69529 0,-1.76742 -1.35262,-3.22826 -1.35262,-1.46082 -4.81532,-4.31034 l -3.22826,-2.68721 q -3.53485,-2.9938 -5.57279,-5.80725 -2.03796,-2.81345 -2.03796,-6.96149 0,-3.62501 1.87564,-6.38436 1.89367,-2.77738 5.04978,-4.31035 3.15612,-1.53297 6.76311,-1.53297 5.46458,0 9.16174,2.9938 3.69716,2.9938 5.15799,8.45839 l -8.07965,3.69715 q -0.46891,-1.46082 -1.31655,-2.92166 -0.84764,-1.46082 -2.03794,-2.45275 -1.19031,-1.00995 -2.57901,-1.00995 -1.22637,0 -1.9658,0.70336 -0.7214,0.68533 -0.7214,1.83957 0,1.46082 1.64118,3.15611 1.65921,1.67725 4.58087,4.07589 l 3.15612,2.75935 q 1.92973,1.62315 3.7693,3.48074 1.8576,1.83956 3.04791,4.0759 1.1903,2.2183 1.1903,5.06782 0,3.84143 -1.92974,6.58274 -1.91171,2.72328 -5.03174,4.11197 -3.12005,1.3887 -6.6549,1.3887 z" />
  <g
     id="g5005"
     transform="matrix(0.98734141,0,0,0.98721153,3.7618867,-17.29969)"
     style="stroke-width:1.01288748">
    <g
       transform="translate(-189.1655,-27.75077)"
       id="g80358aeb98_0_33.1"
       style="stroke-width:1.01288748">
      <path
         style="fill:#000000;fill-rule:evenodd;stroke-width:1.01288748;filter:url(#filter4962)"
         inkscape:connector-curvature="0"
         id="path4788"
         d="m 538.7638,283.7848 h 91.70074 v 0 l 30.56696,30.56693 -30.56696,30.56692 v 0 H 538.7638 Z" />
      <path
         d="m 546.7638,273.7848 h 91.70074 v 0 l 30.56696,30.56693 -30.56696,30.56692 v 0 H 546.7638 Z"
         id="path30"
         inkscape:connector-curvature="0"
         style="fill:#cedb26;fill-rule:evenodd;stroke-width:1.01288748" />
      <path
         d="m 546.7638,273.7848 h 91.70074 v 0 l 30.56696,30.56693 -30.56696,30.56692 v 0 H 546.7638 Z"
         id="path32"
         inkscape:connector-curvature="0"
         style="fill-rule:evenodd;stroke:#444547;stroke-width:1.01288748;stroke-linecap:butt;stroke-linejoin:round" />
    </g>
    <g
       style="fill:#000000;stroke-width:1.01288748;filter:url(#filter4970)"
       id="g4794"
       transform="translate(-197.1655,-17.75077)">
      <path
         style="fill:#000000;fill-rule:evenodd;stroke-width:1.01288748"
         inkscape:connector-curvature="0"
         id="path4790"
         d="m 354.7638,129.78477 h 91.70077 v 0 l 30.56693,30.56692 -30.56693,30.56694 v 0 H 354.7638 Z" />
      <path
         style="fill:#000000;fill-rule:evenodd;stroke:#444547;stroke-width:1.01288748;stroke-linecap:butt;stroke-linejoin:round"
         inkscape:connector-curvature="0"
         id="path4792"
         d="m 354.7638,129.78477 h 91.70077 v 0 l 30.56693,30.56692 -30.56693,30.56694 v 0 H 354.7638 Z" />
    </g>
    <g
       transform="translate(-189.1655,-27.75077)"
       id="g80358aeb98_0_33.2"
       style="stroke-width:1.01288748">
      <path
         d="m 354.7638,129.78477 h 91.70077 v 0 l 30.56693,30.56692 -30.56693,30.56694 v 0 H 354.7638 Z"
         id="path54"
         inkscape:connector-curvature="0"
         style="fill:#cedb26;fill-rule:evenodd;stroke-width:1.01288748" />
      <path
         d="m 354.7638,129.78477 h 91.70077 v 0 l 30.56693,30.56692 -30.56693,30.56694 v 0 H 354.7638 Z"
         id="path56"
         inkscape:connector-curvature="0"
         style="fill-rule:evenodd;stroke:#444547;stroke-width:1.01288748;stroke-linecap:butt;stroke-linejoin:round" />
    </g>
    <g
       transform="translate(-189.1655,-27.75077)"
       id="g80358aeb98_0_33.3"
       style="stroke-width:1.01288748">
      <path
         style="fill:#000000;fill-rule:evenodd;stroke-width:1.01288748;filter:url(#filter4966)"
         inkscape:connector-curvature="0"
         id="path4796"
         d="m 490.7638,139.78477 h 91.70075 v 0 l 30.56695,30.56692 -30.56695,30.56694 v 0 H 490.7638 Z" />
      <path
         d="m 498.7638,129.78477 h 91.70075 v 0 l 30.56695,30.56692 -30.56695,30.56694 v 0 H 498.7638 Z"
         id="path78"
         inkscape:connector-curvature="0"
         style="fill:#cedb26;fill-rule:evenodd;stroke-width:1.01288748" />
      <path
         d="m 498.7638,129.78477 h 91.70075 v 0 l 30.56695,30.56692 -30.56695,30.56694 v 0 H 498.7638 Z"
         id="path80"
         inkscape:connector-curvature="0"
         style="fill-rule:evenodd;stroke:#444547;stroke-width:1.01288748;stroke-linecap:butt;stroke-linejoin:round" />
    </g>
    <g
       style="fill:#000000;stroke-width:1.01288748"
       id="g4932"
       transform="translate(-197.1655,-17.75077)">
      <path
         style="fill:#000000;fill-rule:evenodd;stroke-width:1.01288748"
         inkscape:connector-curvature="0"
         id="path4928"
         d="m 533.0289,334.91864 h -34.47244 v 0 l -30.56693,-30.56693 30.56693,-30.56692 v 0 h 34.47244 z" />
      <path
         style="fill:#000000;fill-rule:evenodd;stroke:#444547;stroke-width:1.01288748;stroke-linecap:butt;stroke-linejoin:round;filter:url(#filter4958)"
         inkscape:connector-curvature="0"
         id="path4930"
         d="m 533.0289,334.91864 h -34.47244 v 0 l -30.56693,-30.56693 30.56693,-30.56692 v 0 h 34.47244 z" />
    </g>
    <g
       transform="translate(-189.1655,-27.75077)"
       id="g80358aeb98_0_33.4"
       style="stroke-width:1.01288748">
      <path
         d="m 533.0289,334.91864 h -34.47244 v 0 l -30.56693,-30.56693 30.56693,-30.56692 v 0 h 34.47244 z"
         id="path102"
         inkscape:connector-curvature="0"
         style="fill:#0097a7;fill-rule:evenodd;stroke-width:1.01288748" />
      <path
         d="m 533.0289,334.91864 h -34.47244 v 0 l -30.56693,-30.56693 30.56693,-30.56692 v 0 h 34.47244 z"
         id="path104"
         inkscape:connector-curvature="0"
         style="fill-rule:evenodd;stroke:#444547;stroke-width:1.01288748;stroke-linecap:butt;stroke-linejoin:round" />
    </g>
    <g
       transform="translate(-189.1655,-27.75077)"
       id="g80358aeb98_0_33.5"
       style="stroke-width:1.01288748">
      <path
         style="fill:#000000;fill-rule:evenodd;stroke:#444547;stroke-width:1.01288748;stroke-linecap:butt;stroke-linejoin:round;filter:url(#filter4954)"
         inkscape:connector-curvature="0"
         id="path4798"
         d="m 306.7638,283.7848 h 91.70077 v 0 l 30.56693,30.56693 -30.56693,30.56692 v 0 H 306.7638 Z" />
      <path
         d="m 314.7638,273.7848 h 91.70077 v 0 l 30.56693,30.56693 -30.56693,30.56692 v 0 H 314.7638 Z"
         id="path130"
         inkscape:connector-curvature="0"
         style="fill:#cedb26;fill-rule:evenodd;stroke-width:1.01288748" />
      <path
         d="m 314.7638,273.7848 h 91.70077 v 0 l 30.56693,30.56693 -30.56693,30.56692 v 0 H 314.7638 Z"
         id="path132"
         inkscape:connector-curvature="0"
         style="fill-rule:evenodd;stroke:#444547;stroke-width:1.01288748;stroke-linecap:butt;stroke-linejoin:round" />
    </g>
    <path
       inkscape:connector-curvature="0"
       d="m 167.50602,189.19055 h 48.66141 v 39.16235 h -48.66141 z m 48.6929,0 -0.0315,39.14217 40.03149,-39.14217 z m -48.6922,39.15245 v -39.16235 l -40,39.16235 z"
       style="opacity:1;fill:#ffffff;fill-opacity:0.58431373;fill-rule:evenodd;stroke-width:1.10388255"
       id="path143" />
    <path
       id="path4977"
       style="opacity:1;fill:#ffffff;fill-opacity:0.58431373;fill-rule:evenodd;stroke-width:1.10388255"
       d="M 398.19961,189.19055 H 349.5382 v 39.16235 h 48.66141 z m -48.6929,0 0.0315,39.14217 -40.03149,-39.14217 z m 48.6922,39.15245 v -39.16235 l 40,39.16235 z"
       inkscape:connector-curvature="0" />
  </g>
</svg>
